<?xml version="1.0" encoding="UTF-8"?>
<!-- Generator: visioncortex VTracer 0.6.4 -->
<svg version="1.1" xmlns="http://www.w3.org/2000/svg" width="1000" height="1400">
<path d="M0 0 C0.72993164 0.36432129 1.45986328 0.72864258 2.21191406 1.10400391 C39.16365017 19.87070329 71.90525451 52.37261082 88 91 C88 91.99 88 92.98 88 94 C87.03330132 94.33254036 87.03330132 94.33254036 86.04707336 94.67179871 C78.47037121 97.27845067 70.89429788 99.88692646 63.31860352 102.49650574 C61.32238325 103.18409576 59.32610974 103.87153107 57.32983398 104.55895996 C44.20173749 109.08033299 31.07442525 113.60309203 17.98046875 118.22265625 C17.10505936 118.53144211 16.22964996 118.84022797 15.32771301 119.15837097 C11.34714216 120.56394038 7.36844286 121.97458647 3.3918457 123.39135742 C2.01123751 123.88071648 0.63062274 124.37005699 -0.75 124.859375 C-1.92046875 125.27670898 -3.0909375 125.69404297 -4.296875 126.12402344 C-7 127 -7 127 -9 127 C-10.26921613 125.37921697 -11.46502621 123.7006787 -12.625 122 C-26.18672551 103.0281407 -47.23529365 91.38929398 -70.06713867 87.41015625 C-94.41658496 84.00492277 -118.65714148 89.72765912 -138.63037109 104.1796875 C-157.64838423 118.56747071 -169.08492867 138.95360572 -173.25 162.375 C-176.45078288 186.42412545 -171.24808 210.23988906 -157 230 C-154.15207048 233.496079 -151.13792462 236.76437443 -148 240 C-147.46117187 240.61230469 -146.92234375 241.22460938 -146.3671875 241.85546875 C-133.12988145 256.38989776 -111.17949915 264.95716789 -91.9206543 266.1262207 C-65.14780867 267.06295805 -42.54521909 259.30123713 -22 242 C-20.02 240.02 -18.04 238.04 -16 236 C-27.385 235.505 -27.385 235.505 -39 235 C-39 213.22 -39 191.44 -39 169 C8.52 169 56.04 169 105 169 C105 231.37 105 293.74 105 358 C115.23 358 125.46 358 136 358 C136 265.93 136 173.86 136 79 C170.65 79 205.3 79 241 79 C241 171.4 241 263.8 241 359 C206.68 359 172.36 359 137 359 C137 369.23 137 379.46 137 390 C229.07 390 321.14 390 416 390 C416 414.09 416 438.18 416 463 C358.25 463 300.5 463 241 463 C241 473.23 241 483.46 241 494 C298.75 494 356.5 494 416 494 C416 518.09 416 542.18 416 567 C358.25 567 300.5 567 241 567 C241 577.23 241 587.46 241 598 C298.75 598 356.5 598 416 598 C416 622.09 416 646.18 416 671 C323.93 671 231.86 671 137 671 C137 681.56 137 692.12 137 703 C126.44 703 115.88 703 105 703 C105 794.74 105 886.48 105 981 C80.91 981 56.82 981 32 981 C32 923.25 32 865.5 32 806 C-12.22 806 -56.44 806 -102 806 C-102 863.75 -102 921.5 -102 981 C-126.09 981 -150.18 981 -175 981 C-175 888.93 -175 796.86 -175 702 C-82.93 702 9.14 702 104 702 C104 691.77 104 681.54 104 671 C80.24 671 56.48 671 32 671 C32 612.92 32 554.84 32 495 C21.77 495 11.54 495 1 495 C1 553.08 1 611.16 1 671 C-22.76 671 -46.52 671 -71 671 C-71 612.92 -71 554.84 -71 495 C-81.23 495 -91.46 495 -102 495 C-102 553.08 -102 611.16 -102 671 C-126.09 671 -150.18 671 -175 671 C-175 578.27 -175 485.54 -175 390 C-82.93 390 9.14 390 104 390 C104 379.77 104 369.54 104 359 C69.68 359 35.36 359 0 359 C0 352.73 0 346.46 0 340 C-3.031875 341.5159375 -3.031875 341.5159375 -6.125 343.0625 C-26.72656544 352.87631127 -50.59854491 359.00251562 -73.46875 359.23828125 C-74.25817993 359.24812042 -75.04760986 359.25795959 -75.86096191 359.26809692 C-126.74136091 359.77121512 -174.77414746 345.48929617 -212.16015625 309.6640625 C-214.9083626 307.01503072 -214.9083626 307.01503072 -217.671875 304.8671875 C-221.26898312 301.9822585 -224.03211206 298.51171146 -227 295 C-227.75410156 294.14535156 -228.50820312 293.29070312 -229.28515625 292.41015625 C-247.72588402 271.10541687 -260.50432063 245.448236 -267.8125 218.3125 C-267.99522461 217.63848145 -268.17794922 216.96446289 -268.36621094 216.27001953 C-272.22428586 200.97678168 -273.54831856 186.03555178 -273.4375 170.3125 C-273.43445862 169.39345886 -273.43141724 168.47441772 -273.42828369 167.52752686 C-273.35905788 153.35654106 -272.60249242 139.76952659 -269 126 C-268.79101074 125.16533203 -268.58202148 124.33066406 -268.36669922 123.47070312 C-261.9743165 98.47576846 -250.56808178 75.49412086 -235 55 C-234.34 54.11441406 -233.68 53.22882813 -233 52.31640625 C-205.72707592 17.31970484 -166.13748403 -6.49225569 -123 -16 C-122.278125 -16.16516113 -121.55625 -16.33032227 -120.8125 -16.50048828 C-80.81660878 -25.25864653 -36.26895383 -18.16719586 0 0 Z M105 392 C105 483.41 105 574.82 105 669 C115.23 669 125.46 669 136 669 C136 577.59 136 486.18 136 392 C125.77 392 115.54 392 105 392 Z " fill="#FFFF00" transform="translate(379,219)"/>
<path d="M0 0 C0.65242676 0.17160645 1.30485352 0.34321289 1.97705078 0.52001953 C22.79400572 6.13172095 41.79360143 15.72943464 58 30 C58.85207031 30.73089844 59.70414063 31.46179688 60.58203125 32.21484375 C87.53453021 55.77240429 104.05234686 89.39995688 107 125 C109.3473154 165.71401547 96.55288783 202.11986739 69.58251953 232.60205078 C47.51780564 256.77249432 13.53948826 274.47492665 -19.34765625 276.30517578 C-23.81573384 276.47090266 -28.27957198 276.47492805 -32.75 276.4375 C-33.53647919 276.43412628 -34.32295837 276.43075256 -35.13327026 276.42727661 C-47.44219856 276.3509787 -59.16769938 275.66848418 -71 272 C-71.78536133 271.75862305 -72.57072266 271.51724609 -73.37988281 271.26855469 C-109.48971346 259.78103353 -139.30023732 235.38663963 -157.13427734 201.86816406 C-174.498837 167.94346088 -177.80091155 129.89494692 -166.61035156 93.44702148 C-160.66853716 75.31664122 -151.33684961 59.50742638 -139 45 C-138.18917969 44.04222656 -137.37835937 43.08445312 -136.54296875 42.09765625 C-118.14778135 20.91885123 -92.92605627 7.08230426 -66 0 C-64.18822266 -0.48146484 -64.18822266 -0.48146484 -62.33984375 -0.97265625 C-42.88017486 -5.22884019 -19.2535894 -5.11648213 0 0 Z M-83.71484375 91.3359375 C-97.65567006 107.58831962 -101.54720286 126.17805255 -100 147 C-97.75670786 164.24032637 -87.86577311 179.97826872 -74.4375 190.75 C-58.16759935 202.30910033 -40.22340502 205.87264447 -20.58203125 203.60546875 C-4.07721913 200.42752356 11.31776505 190.86106532 21.4375 177.5 C32.9009339 160.53032042 36.93022742 141.95818859 33.33984375 121.7109375 C29.11047473 104.02448524 18.33134821 88.85045437 3 79 C-25.81706488 62.27262534 -60.64256265 67.13015289 -83.71484375 91.3359375 Z " fill="#FFFF00" transform="translate(688,924)"/>
</svg>
